<svg xmlns="http://www.w3.org/2000/svg" version="1.1" xmlns:xlink="http://www.w3.org/1999/xlink" xmlns:svgjs="http://svgjs.dev/svgjs" width="1000" height="247" viewBox="0 0 1000 247"><g transform="matrix(1,0,0,1,-0.6060606060606233,0.0493388223188731)"><svg viewBox="0 0 396 98" data-background-color="#ffffff" preserveAspectRatio="xMidYMid meet" height="247" width="1000" xmlns="http://www.w3.org/2000/svg" xmlns:xlink="http://www.w3.org/1999/xlink"><g id="tight-bounds" transform="matrix(1,0,0,1,0.2400000000000091,-0.01957572707388522)"><svg viewBox="0 0 395.52 98.03915145414776" height="98.03915145414776" width="395.52"><g><svg viewBox="0 0 501.4746233297264 124.30255498340095" height="98.03915145414776" width="395.52"><g transform="matrix(1,0,0,1,105.95462332972642,2.188636399852456)"><svg viewBox="0 0 395.52 119.92528218369604" height="119.92528218369604" width="395.52"><g id="textblocktransform"><svg viewBox="0 0 395.52 119.92528218369604" height="119.92528218369604" width="395.52" id="textblock"><g><svg viewBox="0 0 395.52 119.92528218369604" height="119.92528218369604" width="395.52"><g transform="matrix(1,0,0,1,0,0)"><svg width="395.52" viewBox="2.1500000953674316 -37.60000228881836 273.3500061035156 79.20000457763672" height="119.92528218369604" data-palette-color="#29a039"><svg></svg><svg></svg><g class="wordmark-text-0" data-fill-palette-color="primary" id="text-0"><path xmlns="http://www.w3.org/2000/svg" d="M32.45-26.05v0c0 2.467-0.567 4.507-1.7 6.12-1.133 1.62-2.7 2.83-4.7 3.63-2 0.8-4.3 1.2-6.9 1.2v0h-8.2c-0.333 0-0.5 0.167-0.5 0.5v0 13.75c0 0.567-0.3 0.85-0.9 0.85v0h-4.35c-0.3 0-0.507-0.06-0.62-0.18-0.12-0.113-0.18-0.303-0.18-0.57v0-35.6c0-0.5 0.233-0.75 0.7-0.75v0h13.35c2.633 0 5.01 0.383 7.13 1.15 2.113 0.767 3.787 1.967 5.02 3.6 1.233 1.633 1.85 3.733 1.85 6.3zM26.25-26.2v0c0-1.533-0.333-2.777-1-3.73-0.667-0.947-1.607-1.637-2.82-2.07-1.22-0.433-2.663-0.65-4.33-0.65v0h-6.9c-0.5 0-0.75 0.233-0.75 0.7v0 11.65c0 0.5 0.183 0.75 0.55 0.75v0h7.45c2.367 0 4.26-0.55 5.68-1.65 1.413-1.1 2.12-2.767 2.12-5zM39.3-36.35v0c0-0.5 0.233-0.75 0.7-0.75v0h23.3c0.4 0 0.6 0.217 0.6 0.65v0l-0.05 3.15c0 0.5-0.25 0.75-0.75 0.75v0h-17c-0.5 0-0.75 0.217-0.75 0.65v0 10.3c0 0.433 0.217 0.65 0.65 0.65v0h12.2c0.433 0 0.65 0.2 0.65 0.6v0 3.35c0 0.167-0.04 0.3-0.12 0.4-0.087 0.1-0.263 0.15-0.53 0.15v0h-12.25c-0.4 0-0.6 0.183-0.6 0.55v0 10.8c0 0.367 0.167 0.55 0.5 0.55v0h17.95c0.467 0 0.7 0.2 0.7 0.6v0 3.3c0 0.2-0.05 0.357-0.15 0.47-0.1 0.12-0.283 0.18-0.55 0.18v0h-23.65c-0.567 0-0.85-0.267-0.85-0.8v0zM98.75-1.05v0c0.1 0.267 0.09 0.507-0.03 0.72-0.113 0.22-0.303 0.33-0.57 0.33v0h-4.85c-0.4 0-0.7-0.233-0.9-0.7v0l-6.1-15.2c-0.167-0.4-0.583-0.6-1.25-0.6v0h-7.3c-0.233 0-0.39 0.06-0.47 0.18-0.087 0.113-0.13 0.237-0.13 0.37v0 15.05c0 0.6-0.317 0.9-0.95 0.9v0h-4.25c-0.333 0-0.557-0.067-0.67-0.2-0.12-0.133-0.18-0.333-0.18-0.6v0-35.55c0-0.5 0.233-0.75 0.7-0.75v0h14.45c4.1 0 7.293 0.833 9.58 2.5 2.28 1.667 3.42 4.1 3.42 7.3v0c0 1.833-0.35 3.407-1.05 4.72-0.7 1.32-1.59 2.387-2.67 3.2-1.087 0.82-2.247 1.413-3.48 1.78v0c-0.233 0.1-0.3 0.3-0.2 0.6v0zM85.05-20.75v0c2.6 0 4.577-0.493 5.93-1.48 1.347-0.98 2.02-2.52 2.02-4.62v0c0-2-0.617-3.5-1.85-4.5-1.233-1-2.983-1.5-5.25-1.5v0h-7.95c-0.533 0-0.8 0.2-0.8 0.6v0 10.8c0 0.467 0.183 0.7 0.55 0.7v0zM126.8-29.6v0c-0.867-0.967-1.933-1.8-3.2-2.5-1.267-0.7-2.917-1.05-4.95-1.05v0c-2.367 0-4.207 0.49-5.52 1.47-1.32 0.987-1.98 2.347-1.98 4.08v0c0 0.467 0.117 1.017 0.35 1.65 0.233 0.633 0.71 1.24 1.43 1.82 0.713 0.587 1.753 1.13 3.12 1.63v0l7.5 2.35c3.033 0.933 5.21 2.257 6.53 3.97 1.313 1.72 1.97 3.73 1.97 6.03v0c0 2.2-0.557 4.1-1.67 5.7-1.12 1.6-2.703 2.823-4.75 3.67-2.053 0.853-4.497 1.28-7.33 1.28v0c-2.1 0-4.04-0.243-5.82-0.73-1.787-0.48-3.37-1.197-4.75-2.15-1.387-0.947-2.547-2.103-3.48-3.47v0c-0.133-0.233-0.183-0.45-0.15-0.65 0.033-0.2 0.183-0.4 0.45-0.6v0l2.45-1.7c0.367-0.233 0.65-0.333 0.85-0.3 0.2 0.033 0.383 0.15 0.55 0.35v0c0.833 1.067 1.677 1.967 2.53 2.7 0.847 0.733 1.83 1.277 2.95 1.63 1.113 0.347 2.47 0.52 4.07 0.52v0c2.5 0 4.51-0.443 6.03-1.33 1.513-0.88 2.27-2.287 2.27-4.22v0c0-0.767-0.15-1.46-0.45-2.08-0.3-0.613-0.817-1.18-1.55-1.7-0.733-0.513-1.8-1.02-3.2-1.52v0l-7.55-2.45c-1.9-0.633-3.44-1.45-4.62-2.45-1.187-1-2.063-2.133-2.63-3.4-0.567-1.267-0.85-2.567-0.85-3.9v0c0-2.133 0.55-4 1.65-5.6 1.1-1.6 2.633-2.84 4.6-3.72 1.967-0.887 4.267-1.33 6.9-1.33v0c1.767 0 3.393 0.207 4.88 0.62 1.48 0.42 2.837 1.003 4.07 1.75 1.233 0.753 2.283 1.647 3.15 2.68v0c0.133 0.167 0.227 0.333 0.28 0.5 0.047 0.167-0.047 0.35-0.28 0.55v0l-2.85 2.2c-0.2 0.133-0.357 0.173-0.47 0.12-0.12-0.047-0.297-0.187-0.53-0.42zM152.9 0.5v0c-3.367 0-6.267-0.743-8.7-2.23-2.433-1.48-4.3-3.63-5.6-6.45-1.3-2.813-1.95-6.22-1.95-10.22v0c0-4.033 0.667-7.483 2-10.35 1.333-2.867 3.217-5.06 5.65-6.58 2.433-1.513 5.317-2.27 8.65-2.27v0c3.3 0 6.157 0.757 8.57 2.27 2.42 1.52 4.29 3.703 5.61 6.55 1.313 2.853 1.97 6.297 1.97 10.33v0c0 4-0.65 7.41-1.95 10.23-1.3 2.813-3.167 4.97-5.6 6.47-2.433 1.5-5.317 2.25-8.65 2.25zM152.95-3.95v0c3.333 0 5.81-1.16 7.43-3.48 1.613-2.313 2.42-5.97 2.42-10.97v0c0-5.067-0.827-8.8-2.48-11.2-1.647-2.4-4.103-3.6-7.37-3.6v0c-3.333 0-5.833 1.207-7.5 3.62-1.667 2.42-2.5 6.147-2.5 11.18v0c0 4.967 0.833 8.617 2.5 10.95 1.667 2.333 4.167 3.5 7.5 3.5zM201.15-37.1h3.8c0.367 0 0.55 0.217 0.55 0.65v0 35.8c0 0.2-0.067 0.357-0.2 0.47-0.133 0.12-0.317 0.18-0.55 0.18v0h-3.25c-0.233 0-0.433-0.027-0.6-0.08-0.167-0.047-0.333-0.187-0.5-0.42v0l-18.25-26.2c-0.167-0.233-0.3-0.333-0.4-0.3-0.1 0.033-0.15 0.15-0.15 0.35v0 25.95c0 0.467-0.267 0.7-0.8 0.7v0h-3.55c-0.533 0-0.8-0.233-0.8-0.7v0-35.65c0-0.5 0.25-0.75 0.75-0.75v0h3.9c0.267 0 0.473 0.033 0.62 0.1 0.153 0.067 0.313 0.233 0.48 0.5v0l17.5 25.35c0.2 0.267 0.373 0.373 0.52 0.32 0.153-0.047 0.23-0.187 0.23-0.42v0-25.15c0-0.467 0.233-0.7 0.7-0.7zM212.55 0v0c-0.233 0-0.4-0.1-0.5-0.3-0.1-0.2-0.1-0.45 0-0.75v0l12.75-35.25c0.1-0.3 0.233-0.51 0.4-0.63 0.167-0.113 0.4-0.17 0.7-0.17v0h5.05c0.633 0 1.05 0.283 1.25 0.85v0l12.65 35.25c0.1 0.233 0.1 0.457 0 0.67-0.1 0.22-0.283 0.33-0.55 0.33v0h-4.7c-0.433 0-0.717-0.2-0.85-0.6v0l-3.2-8.9c-0.033-0.167-0.093-0.283-0.18-0.35-0.08-0.067-0.22-0.1-0.42-0.1v0h-13.85c-0.3 0-0.5 0.133-0.6 0.4v0l-3.25 9.05c-0.067 0.167-0.16 0.29-0.28 0.37-0.113 0.087-0.303 0.13-0.57 0.13v0zM222.5-14.65h10.9c0.433 0 0.567-0.233 0.4-0.7v0l-5.4-15c-0.133-0.267-0.26-0.4-0.38-0.4-0.113 0-0.22 0.15-0.32 0.45v0l-5.55 15c-0.167 0.433-0.05 0.65 0.35 0.65zM251.35-36.35v0c0-0.5 0.233-0.75 0.7-0.75v0h4.7c0.433 0 0.65 0.25 0.65 0.75v0 31.25c0 0.367 0.167 0.55 0.5 0.55v0h16.9c0.467 0 0.7 0.2 0.7 0.6v0 3.3c0 0.2-0.06 0.357-0.18 0.47-0.113 0.12-0.287 0.18-0.52 0.18v0h-22.6c-0.333 0-0.56-0.067-0.68-0.2-0.113-0.133-0.17-0.333-0.17-0.6v0z" fill="#29a039" fill-rule="nonzero" stroke="none" stroke-width="1" stroke-linecap="butt" stroke-linejoin="miter" stroke-miterlimit="10" stroke-dasharray="" stroke-dashoffset="0" font-family="none" font-weight="none" font-size="none" text-anchor="none" style="mix-blend-mode: normal" data-fill-palette-color="primary" opacity="1"></path><path xmlns="http://www.w3.org/2000/svg" d="M2.9 41.1v0c-0.267 0-0.457-0.05-0.57-0.15-0.12-0.1-0.18-0.283-0.18-0.55v0-1.4c0-0.3 0.04-0.543 0.12-0.73 0.087-0.18 0.263-0.453 0.53-0.82v0l18.7-28.35c0.2-0.333 0.1-0.5-0.3-0.5v0h-17.4c-0.267 0-0.44-0.06-0.52-0.18-0.087-0.113-0.13-0.287-0.13-0.52v0-3.3c0-0.4 0.167-0.6 0.5-0.6v0h25.85c0.367 0 0.55 0.2 0.55 0.6v0 1.55c0 0.233-0.033 0.423-0.1 0.57-0.067 0.153-0.2 0.363-0.4 0.63v0l-19.05 28.65c-0.1 0.167-0.107 0.29-0.02 0.37 0.08 0.087 0.187 0.13 0.32 0.13v0h18.5c0.433 0 0.65 0.183 0.65 0.55v0 3.4c0 0.167-0.05 0.317-0.15 0.45-0.1 0.133-0.283 0.2-0.55 0.2v0zM50.35 41.6v0c-3.367 0-6.267-0.743-8.7-2.23-2.433-1.48-4.3-3.63-5.6-6.45-1.3-2.813-1.95-6.22-1.95-10.22v0c0-4.033 0.667-7.483 2-10.35 1.333-2.867 3.217-5.06 5.65-6.58 2.433-1.513 5.317-2.27 8.65-2.27v0c3.3 0 6.16 0.757 8.58 2.27 2.413 1.52 4.28 3.703 5.6 6.55 1.313 2.853 1.97 6.297 1.97 10.33v0c0 4-0.65 7.41-1.95 10.23-1.3 2.813-3.167 4.97-5.6 6.47-2.433 1.5-5.317 2.25-8.65 2.25zM50.4 37.15v0c3.333 0 5.81-1.16 7.43-3.48 1.613-2.313 2.42-5.97 2.42-10.97v0c0-5.067-0.823-8.8-2.47-11.2-1.653-2.4-4.113-3.6-7.38-3.6v0c-3.333 0-5.833 1.207-7.5 3.62-1.667 2.42-2.5 6.147-2.5 11.18v0c0 4.967 0.833 8.617 2.5 10.95 1.667 2.333 4.167 3.5 7.5 3.5zM88.7 41.6v0c-3.367 0-6.267-0.743-8.7-2.23-2.433-1.48-4.3-3.63-5.6-6.45-1.3-2.813-1.95-6.22-1.95-10.22v0c0-4.033 0.667-7.483 2-10.35 1.333-2.867 3.217-5.06 5.65-6.58 2.433-1.513 5.317-2.27 8.65-2.27v0c3.3 0 6.16 0.757 8.58 2.27 2.413 1.52 4.28 3.703 5.6 6.55 1.313 2.853 1.97 6.297 1.97 10.33v0c0 4-0.65 7.41-1.95 10.23-1.3 2.813-3.167 4.97-5.6 6.47-2.433 1.5-5.317 2.25-8.65 2.25zM88.75 37.15v0c3.333 0 5.807-1.16 7.42-3.48 1.62-2.313 2.43-5.97 2.43-10.97v0c0-5.067-0.823-8.8-2.47-11.2-1.653-2.4-4.113-3.6-7.38-3.6v0c-3.333 0-5.833 1.207-7.5 3.62-1.667 2.42-2.5 6.147-2.5 11.18v0c0 4.967 0.833 8.617 2.5 10.95 1.667 2.333 4.167 3.5 7.5 3.5z" fill="#29a039" fill-rule="nonzero" stroke="none" stroke-width="1" stroke-linecap="butt" stroke-linejoin="miter" stroke-miterlimit="10" stroke-dasharray="" stroke-dashoffset="0" font-family="none" font-weight="none" font-size="none" text-anchor="none" style="mix-blend-mode: normal" data-fill-palette-color="primary" opacity="1"></path></g></svg></g></svg></g></svg></g></svg></g><g><svg viewBox="0 0 92.83214859821776 124.30255498340095" height="124.30255498340095" width="92.83214859821776"><g><svg xmlns="http://www.w3.org/2000/svg" xmlns:xlink="http://www.w3.org/1999/xlink" version="1.1" x="0" y="0" viewBox="26.86199951171875 11.503999710083008 90.3590087890625 120.99101257324219" enable-background="new 0 0 144.083 144" xml:space="preserve" height="124.30255498340095" width="92.83214859821776" class="icon-icon-0" data-fill-palette-color="accent" id="icon-0"><path d="M72.041 11.504c-21.327 0-45.179 14.005-45.179 32.749 0 2.059 0.166 20.271 5.918 25.817 5.804 5.593 13.317 13.848 15.394 18.704 0.787 1.839 1.462 4.38 2.177 7.069 1.525 5.736 3.253 12.237 7.129 15.729 2.597 2.339 6.72 3.832 11.561 4.272v4.239l-8.169 8.17 4.243 4.242 6.926-6.927 6.927 6.927 4.242-4.242-8.169-8.17v-4.239c4.841-0.44 8.964-1.934 11.562-4.273 3.874-3.489 5.602-9.989 7.127-15.724 0.715-2.691 1.391-5.233 2.179-7.073 2.076-4.856 9.59-13.111 15.394-18.705 5.752-5.546 5.918-23.758 5.918-25.817C117.22 24.954 93.41 11.504 72.041 11.504zM107.138 65.75c-3.156 3.042-13.692 13.522-16.746 20.665-0.958 2.239-1.688 4.984-2.461 7.891-1.31 4.927-2.795 10.512-5.343 12.808-1.944 1.75-6.084 2.882-10.547 2.882-4.463 0-8.603-1.132-10.546-2.882-2.55-2.297-4.035-7.883-5.345-12.811-0.772-2.905-1.502-5.649-2.459-7.888-3.054-7.143-13.59-17.623-16.746-20.665-2.521-2.432-4.083-13.052-4.083-21.498 0-15.064 21.061-26.749 39.179-26.749 18.495 0 39.179 11.439 39.179 26.749C111.22 52.698 109.66 63.319 107.138 65.75z" fill="#29a039" data-fill-palette-color="accent"></path><rect x="42.206" y="53.8" transform="matrix(-0.7071 -0.7071 0.7071 -0.7071 45.6253 132.4982)" width="16.095" height="5.999" fill="#29a039" data-fill-palette-color="accent"></rect><rect x="90.829" y="48.752" transform="matrix(-0.7071 -0.7071 0.7071 -0.7071 120.0119 163.3102)" width="5.999" height="16.095" fill="#29a039" data-fill-palette-color="accent"></rect><rect x="63.791" y="96.69" width="6" height="8.5" fill="#29a039" data-fill-palette-color="accent"></rect><rect x="74.292" y="96.69" width="5.999" height="8.5" fill="#29a039" data-fill-palette-color="accent"></rect></svg></g></svg></g></svg></g><defs></defs></svg><rect width="395.52" height="98.03915145414776" fill="none" stroke="none" visibility="hidden"></rect></g></svg></g></svg>