<svg xmlns="http://www.w3.org/2000/svg" version="1.1" xmlns:xlink="http://www.w3.org/1999/xlink" xmlns:svgjs="http://svgjs.dev/svgjs" width="2000" height="484" viewBox="0 0 2000 484"><g transform="matrix(1,0,0,1,-1.2121212121212466,0.1833982902603566)"><svg viewBox="0 0 396 96" data-background-color="#ffffff" preserveAspectRatio="xMidYMid meet" height="484" width="2000" xmlns="http://www.w3.org/2000/svg" xmlns:xlink="http://www.w3.org/1999/xlink"><g id="tight-bounds" transform="matrix(1,0,0,1,0.2400000000000091,-0.036376520382219724)"><svg viewBox="0 0 395.52 96.07275304076443" height="96.07275304076443" width="395.52"><g><svg viewBox="0 0 518.6256591736809 125.97541179813085" height="96.07275304076443" width="395.52"><g transform="matrix(1,0,0,1,123.10565917368089,2.218090945794401)"><svg viewBox="0 0 395.52 121.53922990654205" height="121.53922990654205" width="395.52"><g id="textblocktransform"><svg viewBox="0 0 395.52 121.53922990654205" height="121.53922990654205" width="395.52" id="textblock"><g><svg viewBox="0 0 395.52 121.53922990654205" height="121.53922990654205" width="395.52"><g transform="matrix(1,0,0,1,0,0)"><svg width="395.52" viewBox="2.35 -37.60000000000001 270 79.20000000000002" height="121.53922990654205" data-palette-color="#29a039"><svg></svg><svg></svg><g class="wordmark-text-0" data-fill-palette-color="primary" id="text-0"><path d="M31.8-26.3v0c0 2.467-0.567 4.5-1.7 6.1-1.133 1.6-2.683 2.783-4.65 3.55-1.967 0.767-4.25 1.15-6.85 1.15v0h-8.5c-0.3 0-0.45 0.15-0.45 0.45v0 14.3c0 0.5-0.25 0.75-0.75 0.75v0h-3.4c-0.233 0-0.4-0.05-0.5-0.15-0.1-0.1-0.15-0.267-0.15-0.5v0-35.75c0-0.467 0.2-0.7 0.6-0.7v0h12.6c2.633 0 4.983 0.367 7.05 1.1 2.067 0.733 3.7 1.9 4.9 3.5 1.2 1.6 1.8 3.667 1.8 6.2zM26.9-26.45v0c0-1.7-0.373-3.067-1.12-4.1-0.753-1.033-1.803-1.773-3.15-2.22-1.353-0.453-2.963-0.68-4.83-0.68v0h-7.5c-0.433 0-0.65 0.2-0.65 0.6v0 13c0 0.467 0.15 0.7 0.45 0.7v0h8.05c2.633 0 4.75-0.583 6.35-1.75 1.6-1.167 2.4-3.017 2.4-5.55zM39.35-36.4v0c0-0.467 0.2-0.7 0.6-0.7v0h22.45c0.333 0 0.5 0.183 0.5 0.55v0 2.55c0 0.4-0.217 0.6-0.65 0.6v0h-17.45c-0.433 0-0.65 0.2-0.65 0.6v0 11.7c0 0.367 0.183 0.55 0.55 0.55v0h12.95c0.367 0 0.55 0.183 0.55 0.55v0 2.65c0 0.133-0.033 0.24-0.1 0.32-0.067 0.087-0.217 0.13-0.45 0.13v0h-12.95c-0.367 0-0.55 0.183-0.55 0.55v0 12.15c0 0.333 0.167 0.5 0.5 0.5v0h18.35c0.367 0 0.55 0.167 0.55 0.5v0 2.65c0 0.167-0.043 0.3-0.13 0.4-0.08 0.1-0.22 0.15-0.42 0.15v0h-22.95c-0.467 0-0.7-0.233-0.7-0.7v0zM97.25-0.95v0c0.1 0.233 0.093 0.45-0.02 0.65-0.12 0.2-0.297 0.3-0.53 0.3v0h-3.65c-0.367 0-0.633-0.2-0.8-0.6v0l-6.45-15.75c-0.167-0.367-0.567-0.55-1.2-0.55v0h-8.45c-0.233 0-0.39 0.05-0.47 0.15-0.087 0.1-0.13 0.233-0.13 0.4v0 15.55c0 0.533-0.283 0.8-0.85 0.8v0h-3.25c-0.267 0-0.45-0.06-0.55-0.18-0.1-0.113-0.15-0.27-0.15-0.47v0-35.75c0-0.467 0.2-0.7 0.6-0.7v0h13.95c3.933 0 6.993 0.807 9.18 2.42 2.18 1.62 3.27 4.013 3.27 7.18v0c0 1.9-0.367 3.507-1.1 4.82-0.733 1.32-1.657 2.37-2.77 3.15-1.12 0.787-2.263 1.363-3.43 1.73v0c-0.267 0.033-0.333 0.2-0.2 0.5v0zM83.9-20.4v0c2.933 0 5.143-0.533 6.63-1.6 1.48-1.067 2.22-2.75 2.22-5.05v0c0-2.233-0.657-3.883-1.97-4.95-1.32-1.067-3.23-1.6-5.73-1.6v0h-8.8c-0.467 0-0.7 0.183-0.7 0.55v0 12c0 0.433 0.15 0.65 0.45 0.65v0zM125.6-30.2v0c-0.867-1.033-1.983-1.917-3.35-2.65-1.367-0.733-3.083-1.1-5.15-1.1v0c-2.5 0-4.467 0.55-5.9 1.65-1.433 1.1-2.15 2.633-2.15 4.6v0c0 0.533 0.127 1.15 0.38 1.85 0.247 0.7 0.753 1.383 1.52 2.05 0.767 0.667 1.917 1.267 3.45 1.8v0l7.25 2.4c3.033 1 5.183 2.323 6.45 3.97 1.267 1.653 1.9 3.597 1.9 5.83v0c0 2.133-0.533 3.973-1.6 5.52-1.067 1.553-2.583 2.737-4.55 3.55-1.967 0.82-4.333 1.23-7.1 1.23v0c-2 0-3.85-0.243-5.55-0.73-1.7-0.48-3.207-1.18-4.52-2.1-1.32-0.913-2.447-2.053-3.38-3.42v0c-0.167-0.233-0.223-0.443-0.17-0.63 0.047-0.18 0.203-0.37 0.47-0.57v0l1.8-1.25c0.333-0.2 0.593-0.3 0.78-0.3 0.18 0 0.337 0.1 0.47 0.3v0c0.9 1.133 1.783 2.073 2.65 2.82 0.867 0.753 1.877 1.313 3.03 1.68 1.147 0.367 2.553 0.55 4.22 0.55v0c2.633 0 4.767-0.477 6.4-1.43 1.633-0.947 2.45-2.52 2.45-4.72v0c0-0.833-0.167-1.593-0.5-2.28-0.333-0.68-0.9-1.313-1.7-1.9-0.8-0.58-1.95-1.153-3.45-1.72v0l-7.6-2.6c-1.833-0.633-3.317-1.45-4.45-2.45-1.133-1-1.957-2.1-2.47-3.3-0.52-1.2-0.78-2.433-0.78-3.7v0c0-2.1 0.533-3.927 1.6-5.48 1.067-1.547 2.543-2.747 4.43-3.6 1.88-0.847 4.087-1.27 6.62-1.27v0c1.7 0 3.26 0.2 4.68 0.6 1.413 0.4 2.713 0.967 3.9 1.7 1.18 0.733 2.22 1.617 3.12 2.65v0c0.133 0.133 0.217 0.283 0.25 0.45 0.033 0.167-0.05 0.333-0.25 0.5v0l-2.3 1.8c-0.167 0.1-0.3 0.123-0.4 0.07-0.1-0.047-0.267-0.17-0.5-0.37zM151 0.5v0c-3.267 0-6.09-0.733-8.47-2.2-2.387-1.467-4.213-3.61-5.48-6.43-1.267-2.813-1.9-6.237-1.9-10.27v0c0-4.067 0.65-7.533 1.95-10.4 1.3-2.867 3.133-5.05 5.5-6.55 2.367-1.5 5.183-2.25 8.45-2.25v0c3.267 0 6.077 0.75 8.43 2.25 2.347 1.5 4.163 3.667 5.45 6.5 1.28 2.833 1.92 6.3 1.92 10.4v0c0 4.033-0.633 7.457-1.9 10.27-1.267 2.82-3.09 4.97-5.47 6.45-2.387 1.487-5.213 2.23-8.48 2.23zM151.1-3.15v0c3.6 0 6.293-1.243 8.08-3.73 1.78-2.48 2.67-6.32 2.67-11.52v0c0-5.3-0.907-9.217-2.72-11.75-1.82-2.533-4.513-3.8-8.08-3.8v0c-3.6 0-6.317 1.273-8.15 3.82-1.833 2.553-2.75 6.463-2.75 11.73v0c0 5.167 0.917 9 2.75 11.5 1.833 2.5 4.567 3.75 8.2 3.75zM199.6-37.1h2.95c0.367 0 0.55 0.2 0.55 0.6v0 35.9c0 0.2-0.057 0.35-0.17 0.45-0.12 0.1-0.28 0.15-0.48 0.15v0h-2.45c-0.2 0-0.383-0.017-0.55-0.05-0.167-0.033-0.333-0.15-0.5-0.35v0l-19.3-28.05c-0.167-0.233-0.3-0.333-0.4-0.3-0.1 0.033-0.15 0.15-0.15 0.35v0 27.75c0 0.433-0.233 0.65-0.7 0.65v0h-2.8c-0.433 0-0.65-0.217-0.65-0.65v0-35.75c0-0.467 0.217-0.7 0.65-0.7v0h2.85c0.267 0 0.467 0.027 0.6 0.08 0.133 0.047 0.283 0.187 0.45 0.42v0l18.75 27.45c0.2 0.233 0.377 0.317 0.53 0.25 0.147-0.067 0.22-0.2 0.22-0.4v0-27.2c0-0.4 0.2-0.6 0.6-0.6zM210.7 0v0c-0.2 0-0.34-0.077-0.42-0.23-0.087-0.147-0.097-0.353-0.03-0.62v0l12.95-35.55c0.1-0.233 0.217-0.41 0.35-0.53 0.133-0.113 0.35-0.17 0.65-0.17v0h3.9c0.6 0 0.983 0.25 1.15 0.75v0l12.8 35.5c0.067 0.2 0.06 0.39-0.02 0.57-0.087 0.187-0.247 0.28-0.48 0.28v0h-3.55c-0.4 0-0.667-0.167-0.8-0.5v0l-3.45-9.7c-0.067-0.133-0.133-0.233-0.2-0.3-0.067-0.067-0.2-0.1-0.4-0.1v0h-14.55c-0.3 0-0.5 0.133-0.6 0.4v0l-3.55 9.75c-0.033 0.133-0.107 0.24-0.22 0.32-0.12 0.087-0.297 0.13-0.53 0.13v0zM219.75-14.4h12.1c0.4 0 0.533-0.217 0.4-0.65v0l-6-16.45c-0.133-0.3-0.257-0.45-0.37-0.45-0.12 0-0.23 0.15-0.33 0.45v0l-6.1 16.55c-0.167 0.367-0.067 0.55 0.3 0.55zM249.15-36.4v0c0-0.467 0.2-0.7 0.6-0.7v0h3.6c0.4 0 0.6 0.217 0.6 0.65v0 32.25c0 0.333 0.167 0.5 0.5 0.5v0h17.3c0.4 0 0.6 0.167 0.6 0.5v0 2.65c0 0.167-0.05 0.3-0.15 0.4-0.1 0.1-0.25 0.15-0.45 0.15v0h-21.9c-0.267 0-0.45-0.06-0.55-0.18-0.1-0.113-0.15-0.287-0.15-0.52v0z" fill="#000000" fill-rule="nonzero" stroke="none" stroke-width="1" stroke-linecap="butt" stroke-linejoin="miter" stroke-miterlimit="10" stroke-dasharray="" stroke-dashoffset="0" font-family="none" font-weight="none" font-size="none" text-anchor="none" style="mix-blend-mode: normal" data-fill-palette-color="primary" opacity="1"></path><path transform="translate(0,41.1)" d="M3 0v0c-0.233 0-0.4-0.043-0.5-0.13-0.1-0.08-0.15-0.237-0.15-0.47v0-1.15c0-0.267 0.033-0.477 0.1-0.63 0.067-0.147 0.217-0.387 0.45-0.72v0l19.45-29.8c0.2-0.333 0.117-0.5-0.25-0.5v0h-18.4c-0.2 0-0.34-0.04-0.42-0.12-0.087-0.087-0.13-0.23-0.13-0.43v0-2.65c0-0.333 0.167-0.5 0.5-0.5v0h25c0.3 0 0.45 0.167 0.45 0.5v0 1.3c0 0.2-0.033 0.357-0.1 0.47-0.067 0.12-0.167 0.297-0.3 0.53v0l-19.75 30.1c-0.1 0.167-0.123 0.283-0.07 0.35 0.047 0.067 0.137 0.1 0.27 0.1v0h19.35c0.367 0 0.55 0.15 0.55 0.45v0 2.75c0 0.167-0.05 0.3-0.15 0.4-0.1 0.1-0.25 0.15-0.45 0.15v0zM49.5 0.5v0c-3.267 0-6.09-0.733-8.47-2.2-2.387-1.467-4.213-3.61-5.48-6.43-1.267-2.813-1.9-6.237-1.9-10.27v0c0-4.067 0.65-7.533 1.95-10.4 1.3-2.867 3.133-5.05 5.5-6.55 2.367-1.5 5.183-2.25 8.45-2.25v0c3.267 0 6.077 0.75 8.43 2.25 2.347 1.5 4.16 3.667 5.44 6.5 1.287 2.833 1.93 6.3 1.93 10.4v0c0 4.033-0.633 7.457-1.9 10.27-1.267 2.82-3.09 4.97-5.47 6.45-2.387 1.487-5.213 2.23-8.48 2.23zM49.6-3.15v0c3.6 0 6.293-1.243 8.08-3.73 1.78-2.48 2.67-6.32 2.67-11.52v0c0-5.3-0.907-9.217-2.72-11.75-1.82-2.533-4.513-3.8-8.08-3.8v0c-3.6 0-6.317 1.273-8.15 3.82-1.833 2.553-2.75 6.463-2.75 11.73v0c0 5.167 0.917 9 2.75 11.5 1.833 2.5 4.567 3.75 8.2 3.75zM87.7 0.5v0c-3.267 0-6.09-0.733-8.47-2.2-2.387-1.467-4.213-3.61-5.48-6.43-1.267-2.813-1.9-6.237-1.9-10.27v0c0-4.067 0.65-7.533 1.95-10.4 1.3-2.867 3.133-5.05 5.5-6.55 2.367-1.5 5.183-2.25 8.45-2.25v0c3.267 0 6.077 0.75 8.43 2.25 2.347 1.5 4.163 3.667 5.45 6.5 1.28 2.833 1.92 6.3 1.92 10.4v0c0 4.033-0.633 7.457-1.9 10.27-1.267 2.82-3.09 4.97-5.47 6.45-2.387 1.487-5.213 2.23-8.48 2.23zM87.8-3.15v0c3.6 0 6.293-1.243 8.08-3.73 1.78-2.48 2.67-6.32 2.67-11.52v0c0-5.3-0.907-9.217-2.72-11.75-1.82-2.533-4.513-3.8-8.08-3.8v0c-3.6 0-6.317 1.273-8.15 3.82-1.833 2.553-2.75 6.463-2.75 11.73v0c0 5.167 0.917 9 2.75 11.5 1.833 2.5 4.567 3.75 8.2 3.75z" fill="#000000" fill-rule="nonzero" stroke="none" stroke-width="1" stroke-linecap="butt" stroke-linejoin="miter" stroke-miterlimit="10" stroke-dasharray="" stroke-dashoffset="0" font-family="none" font-weight="none" font-size="none" text-anchor="none" style="mix-blend-mode: normal" data-fill-palette-color="primary" opacity="1"></path></g></svg></g></svg></g></svg></g></svg></g><g><svg viewBox="0 0 109.80658291307529 125.97541179813085" height="125.97541179813085" width="109.80658291307529"><g><svg xmlns="http://www.w3.org/2000/svg" xmlns:xlink="http://www.w3.org/1999/xlink" version="1.1" x="0" y="0" viewBox="12.468269953910951 6.558953064233567 75.13143865905008 86.19441269338347" enable-background="new 0 0 100 100" xml:space="preserve" height="125.97541179813085" width="109.80658291307529" class="icon-icon-0" data-fill-palette-color="accent" id="icon-0"><path d="M29.811 92.749c-1.594 0.046-0.226-1.024 2.906-1.709 7.909-2.038 8.694-7.711 5.158-10.59-3.995-3.032-10.123 1.87-12.231 2.927-2.142 1.24-7.875 3.206-12.225-5.587-3.825-8.73 4.908-16.619 8.223-19 3.252-2.335 6.289-7.786 7.023-9.485-5.27-6.636-5.177-10.283-5.591-12.001-0.195-0.33-0.404-0.621-0.651-0.817-0.004-0.019-0.006-0.035-0.01-0.052l-1.495-1.349c0 0-1.634-1.32-1.394-1.805 0.224-0.451 2.593 0.906 2.593 0.906s-1.672-2.34-1.276-2.678c0.412-0.353 1.907 1.03 1.907 1.03l0.623 0.811-0.185-1.182c0 0-0.333-2.009 0.189-2.161 0.521-0.149 1.011 1.608 1.011 1.608l0.44 1.497 0.607-1.317c0 0 0.507-2.015 1.034-1.885 0.526 0.129 0.274 2.151 0.274 2.151l-0.113 1.894 0.94-0.503c0 0 1.781-1.406 2.209-1.075 0.429 0.331-1.306 2.215-1.306 2.215l-0.897 1.241c-0.192 0.442-0.261 1.415-0.22 1.855 0.972 2.948 3.46 7.552 4.247 6.261 1.793-4.625 10.962-11.552 13.308-12.41 1.971-1.031 11.127-4.222 12.083-6.457-0.453-0.948-3.296-2.459-5.843-4.119-0.001-1.46 0.493-3.568 1.009-5.133 0.199-0.463 0.001-2 0.001-2s-1.987-2.675-1.645-3c0.31-0.254 2.582 0.723 2.582 0.723s1.134-4.89 1.573-4.837c0.7 0.102 1.146 4.195 1.146 4.195s2.364-3.426 3.029-3.273c0.483 0.327-1.422 4.989-1.422 4.989s2.989-0.129 3.176 0.43c0.155 0.513-2.844 1.929-2.844 1.929l-0.952 0.385-0.658 0.695c-0.565 1.386-0.604 1.885-0.611 3.668 1.866 1.149 3.627 1.479 5.491 1.765 1.278-0.395 1.266-0.66 4.622-7.046s5.616-6.174 11.407-7.32c5.736-1.135 7.829-0.486 9.374 1.063 0.03-0.025 0.047-0.039 0.047-0.039 1.348 1.757 1.725 3.908-0.219 9.482-1.945 5.572-2.051 7.841-8.843 10.273-6.793 2.431-7.054 2.38-7.624 3.59 0.024 1.886 0.104 3.676 0.982 5.684 1.767 0.243 2.265 0.273 3.717-0.09l0.782-0.556 0.513-0.89c0 0 1.819-2.772 2.307-2.545 0.528 0.262-0.018 3.206-0.018 3.206s4.881-1.237 5.141-0.715c0.057 0.682-3.664 2.544-3.664 2.544s3.985 1.014 3.988 1.719c-0.006 0.443-5.006 0.884-5.006 0.884s0.649 2.386 0.355 2.657c-0.372 0.294-2.742-2.047-2.742-2.047s-1.494-0.412-1.979-0.279c-1.624 0.292-3.779 0.489-5.226 0.281-1.287-2.753-2.385-5.776-3.263-6.358-2.346 0.634-6.785 9.253-8.081 11.062-1.178 2.204-9.316 10.315-14.147 11.443-1.388 0.598 2.822 3.705 5.605 5.08 0.432 0.101 1.404 0.167 1.87 0.041l1.353-0.713c0 0 2.108-1.458 2.377-0.986 0.267 0.472-1.373 2.036-1.373 2.036l-0.629 0.863 1.89 0.152c0 0 2.036 0.033 2.091 0.572 0.056 0.537-2.01 0.761-2.01 0.761l-1.389 0.416 1.418 0.646c0 0 1.674 0.729 1.452 1.226-0.222 0.495-2.164-0.114-2.164-0.114l-1.146-0.349 0.718 0.729c0 0 1.159 1.675 0.753 2.034-0.39 0.342-2.474-1.639-2.474-1.639s1.013 2.534 0.534 2.694c-0.515 0.169-1.592-1.631-1.592-1.631l-1.127-1.673c-0.017-0.005-0.032-0.009-0.049-0.013-0.161-0.274-0.42-0.521-0.719-0.762-1.649-0.65-5.282-1.069-11.136-7.248-0.894 0.407-1.547 0.681-2.11 0.765-4.232 1.576-11.937 3.868-15.031 7.761-3.249 3.74-3.503 8.313-1.125 10.428 3.486 4.012 8.591-2.904 14.78-3.695 3.585-0.161 6.504 1.608 8.07 5.63 0.782 2.169 0.741 4.108-0.176 5.815C39.286 91.931 31.511 92.826 29.811 92.749z" fill="#000000" data-fill-palette-color="accent"></path></svg></g></svg></g></svg></g><defs></defs></svg><rect width="395.52" height="96.07275304076443" fill="none" stroke="none" visibility="hidden"></rect></g></svg></g></svg>