<svg xmlns="http://www.w3.org/2000/svg" version="1.1" xmlns:xlink="http://www.w3.org/1999/xlink" xmlns:svgjs="http://svgjs.dev/svgjs" width="2000" height="454" viewBox="0 0 2000 454"><g transform="matrix(1,0,0,1,-1.2121212121213603,0.7835868899316267)"><svg viewBox="0 0 396 90" data-background-color="#ffffff" preserveAspectRatio="xMidYMid meet" height="454" width="2000" xmlns="http://www.w3.org/2000/svg" xmlns:xlink="http://www.w3.org/1999/xlink"><g id="tight-bounds" transform="matrix(1,0,0,1,0.24000000000003752,-0.15533660813622419)"><svg viewBox="0 0 395.5199999999999 90.31067321627243" height="90.31067321627243" width="395.5199999999999"><g><svg viewBox="0 0 551.7154628564872 125.97541179813085" height="90.31067321627243" width="395.5199999999999"><g transform="matrix(1,0,0,1,156.19546285648715,2.218090945794401)"><svg viewBox="0 0 395.52 121.53922990654205" height="121.53922990654205" width="395.52"><g id="textblocktransform"><svg viewBox="0 0 395.52 121.53922990654205" height="121.53922990654205" width="395.52" id="textblock"><g><svg viewBox="0 0 395.52 121.53922990654205" height="121.53922990654205" width="395.52"><g transform="matrix(1,0,0,1,0,0)"><svg width="395.52" viewBox="2.35 -37.60000000000001 270 79.20000000000002" height="121.53922990654205" data-palette-color="#29a039"><svg></svg><svg></svg><g class="wordmark-text-0" data-fill-palette-color="primary" id="text-0"><path d="M31.8-26.3v0c0 2.467-0.567 4.5-1.7 6.1-1.133 1.6-2.683 2.783-4.65 3.55-1.967 0.767-4.25 1.15-6.85 1.15v0h-8.5c-0.3 0-0.45 0.15-0.45 0.45v0 14.3c0 0.5-0.25 0.75-0.75 0.75v0h-3.4c-0.233 0-0.4-0.05-0.5-0.15-0.1-0.1-0.15-0.267-0.15-0.5v0-35.75c0-0.467 0.2-0.7 0.6-0.7v0h12.6c2.633 0 4.983 0.367 7.05 1.1 2.067 0.733 3.7 1.9 4.9 3.5 1.2 1.6 1.8 3.667 1.8 6.2zM26.9-26.45v0c0-1.7-0.373-3.067-1.12-4.1-0.753-1.033-1.803-1.773-3.15-2.22-1.353-0.453-2.963-0.68-4.83-0.68v0h-7.5c-0.433 0-0.65 0.2-0.65 0.6v0 13c0 0.467 0.15 0.7 0.45 0.7v0h8.05c2.633 0 4.75-0.583 6.35-1.75 1.6-1.167 2.4-3.017 2.4-5.55zM39.35-36.4v0c0-0.467 0.2-0.7 0.6-0.7v0h22.45c0.333 0 0.5 0.183 0.5 0.55v0 2.55c0 0.4-0.217 0.6-0.65 0.6v0h-17.45c-0.433 0-0.65 0.2-0.65 0.6v0 11.7c0 0.367 0.183 0.55 0.55 0.55v0h12.95c0.367 0 0.55 0.183 0.55 0.55v0 2.65c0 0.133-0.033 0.24-0.1 0.32-0.067 0.087-0.217 0.13-0.45 0.13v0h-12.95c-0.367 0-0.55 0.183-0.55 0.55v0 12.15c0 0.333 0.167 0.5 0.5 0.5v0h18.35c0.367 0 0.55 0.167 0.55 0.5v0 2.65c0 0.167-0.043 0.3-0.13 0.4-0.08 0.1-0.22 0.15-0.42 0.15v0h-22.95c-0.467 0-0.7-0.233-0.7-0.7v0zM97.25-0.95v0c0.1 0.233 0.093 0.45-0.02 0.65-0.12 0.2-0.297 0.3-0.53 0.3v0h-3.65c-0.367 0-0.633-0.2-0.8-0.6v0l-6.45-15.75c-0.167-0.367-0.567-0.55-1.2-0.55v0h-8.45c-0.233 0-0.39 0.05-0.47 0.15-0.087 0.1-0.13 0.233-0.13 0.4v0 15.55c0 0.533-0.283 0.8-0.85 0.8v0h-3.25c-0.267 0-0.45-0.06-0.55-0.18-0.1-0.113-0.15-0.27-0.15-0.47v0-35.75c0-0.467 0.2-0.7 0.6-0.7v0h13.95c3.933 0 6.993 0.807 9.18 2.42 2.18 1.62 3.27 4.013 3.27 7.18v0c0 1.9-0.367 3.507-1.1 4.82-0.733 1.32-1.657 2.37-2.77 3.15-1.12 0.787-2.263 1.363-3.43 1.73v0c-0.267 0.033-0.333 0.2-0.2 0.5v0zM83.9-20.4v0c2.933 0 5.143-0.533 6.63-1.6 1.48-1.067 2.22-2.75 2.22-5.05v0c0-2.233-0.657-3.883-1.97-4.95-1.32-1.067-3.23-1.6-5.73-1.6v0h-8.8c-0.467 0-0.7 0.183-0.7 0.55v0 12c0 0.433 0.15 0.65 0.45 0.65v0zM125.6-30.2v0c-0.867-1.033-1.983-1.917-3.35-2.65-1.367-0.733-3.083-1.1-5.15-1.1v0c-2.5 0-4.467 0.55-5.9 1.65-1.433 1.1-2.15 2.633-2.15 4.6v0c0 0.533 0.127 1.15 0.38 1.85 0.247 0.7 0.753 1.383 1.52 2.05 0.767 0.667 1.917 1.267 3.45 1.8v0l7.25 2.4c3.033 1 5.183 2.323 6.45 3.97 1.267 1.653 1.9 3.597 1.9 5.83v0c0 2.133-0.533 3.973-1.6 5.52-1.067 1.553-2.583 2.737-4.55 3.55-1.967 0.82-4.333 1.23-7.1 1.23v0c-2 0-3.85-0.243-5.55-0.73-1.7-0.48-3.207-1.18-4.52-2.1-1.32-0.913-2.447-2.053-3.38-3.42v0c-0.167-0.233-0.223-0.443-0.17-0.63 0.047-0.18 0.203-0.37 0.47-0.57v0l1.8-1.25c0.333-0.2 0.593-0.3 0.78-0.3 0.18 0 0.337 0.1 0.47 0.3v0c0.9 1.133 1.783 2.073 2.65 2.82 0.867 0.753 1.877 1.313 3.03 1.68 1.147 0.367 2.553 0.55 4.22 0.55v0c2.633 0 4.767-0.477 6.4-1.43 1.633-0.947 2.45-2.52 2.45-4.72v0c0-0.833-0.167-1.593-0.5-2.28-0.333-0.68-0.9-1.313-1.7-1.9-0.8-0.58-1.95-1.153-3.45-1.72v0l-7.6-2.6c-1.833-0.633-3.317-1.45-4.45-2.45-1.133-1-1.957-2.1-2.47-3.3-0.52-1.2-0.78-2.433-0.78-3.7v0c0-2.1 0.533-3.927 1.6-5.48 1.067-1.547 2.543-2.747 4.43-3.6 1.88-0.847 4.087-1.27 6.62-1.27v0c1.7 0 3.26 0.2 4.68 0.6 1.413 0.4 2.713 0.967 3.9 1.7 1.18 0.733 2.22 1.617 3.12 2.65v0c0.133 0.133 0.217 0.283 0.25 0.45 0.033 0.167-0.05 0.333-0.25 0.5v0l-2.3 1.8c-0.167 0.1-0.3 0.123-0.4 0.07-0.1-0.047-0.267-0.17-0.5-0.37zM151 0.5v0c-3.267 0-6.09-0.733-8.47-2.2-2.387-1.467-4.213-3.61-5.48-6.43-1.267-2.813-1.9-6.237-1.9-10.27v0c0-4.067 0.65-7.533 1.95-10.4 1.3-2.867 3.133-5.05 5.5-6.55 2.367-1.5 5.183-2.25 8.45-2.25v0c3.267 0 6.077 0.75 8.43 2.25 2.347 1.5 4.163 3.667 5.45 6.5 1.28 2.833 1.92 6.3 1.92 10.4v0c0 4.033-0.633 7.457-1.9 10.27-1.267 2.82-3.09 4.97-5.47 6.45-2.387 1.487-5.213 2.23-8.48 2.23zM151.1-3.15v0c3.6 0 6.293-1.243 8.08-3.73 1.78-2.48 2.67-6.32 2.67-11.52v0c0-5.3-0.907-9.217-2.72-11.75-1.82-2.533-4.513-3.8-8.08-3.8v0c-3.6 0-6.317 1.273-8.15 3.82-1.833 2.553-2.75 6.463-2.75 11.73v0c0 5.167 0.917 9 2.75 11.5 1.833 2.5 4.567 3.75 8.2 3.75zM199.6-37.1h2.95c0.367 0 0.55 0.2 0.55 0.6v0 35.9c0 0.2-0.057 0.35-0.17 0.45-0.12 0.1-0.28 0.15-0.48 0.15v0h-2.45c-0.2 0-0.383-0.017-0.55-0.05-0.167-0.033-0.333-0.15-0.5-0.35v0l-19.3-28.05c-0.167-0.233-0.3-0.333-0.4-0.3-0.1 0.033-0.15 0.15-0.15 0.35v0 27.75c0 0.433-0.233 0.65-0.7 0.65v0h-2.8c-0.433 0-0.65-0.217-0.65-0.65v0-35.75c0-0.467 0.217-0.7 0.65-0.7v0h2.85c0.267 0 0.467 0.027 0.6 0.08 0.133 0.047 0.283 0.187 0.45 0.42v0l18.75 27.45c0.2 0.233 0.377 0.317 0.53 0.25 0.147-0.067 0.22-0.2 0.22-0.4v0-27.2c0-0.4 0.2-0.6 0.6-0.6zM210.7 0v0c-0.2 0-0.34-0.077-0.42-0.23-0.087-0.147-0.097-0.353-0.03-0.62v0l12.95-35.55c0.1-0.233 0.217-0.41 0.35-0.53 0.133-0.113 0.35-0.17 0.65-0.17v0h3.9c0.6 0 0.983 0.25 1.15 0.75v0l12.8 35.5c0.067 0.2 0.06 0.39-0.02 0.57-0.087 0.187-0.247 0.28-0.48 0.28v0h-3.55c-0.4 0-0.667-0.167-0.8-0.5v0l-3.45-9.7c-0.067-0.133-0.133-0.233-0.2-0.3-0.067-0.067-0.2-0.1-0.4-0.1v0h-14.55c-0.3 0-0.5 0.133-0.6 0.4v0l-3.55 9.75c-0.033 0.133-0.107 0.24-0.22 0.32-0.12 0.087-0.297 0.13-0.53 0.13v0zM219.75-14.4h12.1c0.4 0 0.533-0.217 0.4-0.65v0l-6-16.45c-0.133-0.3-0.257-0.45-0.37-0.45-0.12 0-0.23 0.15-0.33 0.45v0l-6.1 16.55c-0.167 0.367-0.067 0.55 0.3 0.55zM249.15-36.4v0c0-0.467 0.2-0.7 0.6-0.7v0h3.6c0.4 0 0.6 0.217 0.6 0.65v0 32.25c0 0.333 0.167 0.5 0.5 0.5v0h17.3c0.4 0 0.6 0.167 0.6 0.5v0 2.65c0 0.167-0.05 0.3-0.15 0.4-0.1 0.1-0.25 0.15-0.45 0.15v0h-21.9c-0.267 0-0.45-0.06-0.55-0.18-0.1-0.113-0.15-0.287-0.15-0.52v0z" fill="#29a039" fill-rule="nonzero" stroke="none" stroke-width="1" stroke-linecap="butt" stroke-linejoin="miter" stroke-miterlimit="10" stroke-dasharray="" stroke-dashoffset="0" font-family="none" font-weight="none" font-size="none" text-anchor="none" style="mix-blend-mode: normal" data-fill-palette-color="primary" opacity="1"></path><path transform="translate(0,41.1)" d="M3 0v0c-0.233 0-0.4-0.043-0.5-0.13-0.1-0.08-0.15-0.237-0.15-0.47v0-1.15c0-0.267 0.033-0.477 0.1-0.63 0.067-0.147 0.217-0.387 0.45-0.72v0l19.45-29.8c0.2-0.333 0.117-0.5-0.25-0.5v0h-18.4c-0.2 0-0.34-0.04-0.42-0.12-0.087-0.087-0.13-0.23-0.13-0.43v0-2.65c0-0.333 0.167-0.5 0.5-0.5v0h25c0.3 0 0.45 0.167 0.45 0.5v0 1.3c0 0.2-0.033 0.357-0.1 0.47-0.067 0.12-0.167 0.297-0.3 0.53v0l-19.75 30.1c-0.1 0.167-0.123 0.283-0.07 0.35 0.047 0.067 0.137 0.1 0.27 0.1v0h19.35c0.367 0 0.55 0.15 0.55 0.45v0 2.75c0 0.167-0.05 0.3-0.15 0.4-0.1 0.1-0.25 0.15-0.45 0.15v0zM49.5 0.5v0c-3.267 0-6.09-0.733-8.47-2.2-2.387-1.467-4.213-3.61-5.48-6.43-1.267-2.813-1.9-6.237-1.9-10.27v0c0-4.067 0.65-7.533 1.95-10.4 1.3-2.867 3.133-5.05 5.5-6.55 2.367-1.5 5.183-2.25 8.45-2.25v0c3.267 0 6.077 0.75 8.43 2.25 2.347 1.5 4.16 3.667 5.44 6.5 1.287 2.833 1.93 6.3 1.93 10.4v0c0 4.033-0.633 7.457-1.9 10.27-1.267 2.82-3.09 4.97-5.47 6.45-2.387 1.487-5.213 2.23-8.48 2.23zM49.6-3.15v0c3.6 0 6.293-1.243 8.08-3.73 1.78-2.48 2.67-6.32 2.67-11.52v0c0-5.3-0.907-9.217-2.72-11.75-1.82-2.533-4.513-3.8-8.08-3.8v0c-3.6 0-6.317 1.273-8.15 3.82-1.833 2.553-2.75 6.463-2.75 11.73v0c0 5.167 0.917 9 2.75 11.5 1.833 2.5 4.567 3.75 8.2 3.75zM87.7 0.5v0c-3.267 0-6.09-0.733-8.47-2.2-2.387-1.467-4.213-3.61-5.48-6.43-1.267-2.813-1.9-6.237-1.9-10.27v0c0-4.067 0.65-7.533 1.95-10.4 1.3-2.867 3.133-5.05 5.5-6.55 2.367-1.5 5.183-2.25 8.45-2.25v0c3.267 0 6.077 0.75 8.43 2.25 2.347 1.5 4.163 3.667 5.45 6.5 1.28 2.833 1.92 6.3 1.92 10.4v0c0 4.033-0.633 7.457-1.9 10.27-1.267 2.82-3.09 4.97-5.47 6.45-2.387 1.487-5.213 2.23-8.48 2.23zM87.8-3.15v0c3.6 0 6.293-1.243 8.08-3.73 1.78-2.48 2.67-6.32 2.67-11.52v0c0-5.3-0.907-9.217-2.72-11.75-1.82-2.533-4.513-3.8-8.08-3.8v0c-3.6 0-6.317 1.273-8.15 3.82-1.833 2.553-2.75 6.463-2.75 11.73v0c0 5.167 0.917 9 2.75 11.5 1.833 2.5 4.567 3.75 8.2 3.75z" fill="#29a039" fill-rule="nonzero" stroke="none" stroke-width="1" stroke-linecap="butt" stroke-linejoin="miter" stroke-miterlimit="10" stroke-dasharray="" stroke-dashoffset="0" font-family="none" font-weight="none" font-size="none" text-anchor="none" style="mix-blend-mode: normal" data-fill-palette-color="primary" opacity="1"></path></g></svg></g></svg></g></svg></g></svg></g><g><svg viewBox="0 0 142.89638659588155 125.97541179813085" height="125.97541179813085" width="142.89638659588155"><g><svg xmlns="http://www.w3.org/2000/svg" xmlns:xlink="http://www.w3.org/1999/xlink" version="1.1" x="0" y="0" viewBox="64.88473349660221 85.58264412248975 381.6048215827324 336.41735587751026" enable-background="new 0 0 512 512" xml:space="preserve" height="125.97541179813085" width="142.89638659588155" class="icon-icon-0" data-fill-palette-color="accent" id="icon-0"><g fill="#29a039" data-fill-palette-color="accent"><g fill="#29a039" data-fill-palette-color="accent"><path d="M420.23 156.672c-4.98-7.471-9.269-14.408-13.052-20.529-13.333-21.569-22.967-37.153-44.154-44.842-19.797-7.185-49.835-7.563-107.024-1.336-57.443-6.254-87.645-5.848-107.606 1.435-21.328 7.782-31.113 23.526-44.657 45.317-3.704 5.959-7.901 12.714-12.729 19.955-34.688 52.031-28.53 88.064-17.255 109.13C94.227 304.059 148.99 326 224 326c3.313 0 6-2.687 6-6s-2.687-6-6-6c-70.442 0-121.349-19.631-139.667-53.86-13.949-26.063-8.188-59.54 16.66-96.812 4.934-7.4 9.186-14.241 12.937-20.277 13.185-21.212 21.143-34.017 38.579-40.378 18.142-6.621 46.975-6.819 102.84-0.708l0.652 0.071 0.652-0.071c55.617-6.083 84.293-5.91 102.278 0.617 17.267 6.266 25.086 18.915 38.04 39.872 3.834 6.203 8.181 13.233 13.275 20.875 24.956 37.434 30.768 71.008 16.809 97.093C408.831 294.471 358.148 314 288 314c-3.313 0-6 2.687-6 6s2.687 6 6 6c74.716 0 129.256-21.839 149.635-59.917C448.917 245.002 455.055 208.909 420.23 156.672z" fill="#29a039" data-fill-palette-color="accent"></path><path d="M170.044 159.722c0-5.752-4.68-10.433-10.432-10.433s-10.433 4.68-10.433 10.433 4.68 10.432 10.433 10.432S170.044 165.475 170.044 159.722z" fill="#29a039" data-fill-palette-color="accent"></path><path d="M351.649 170.154c5.752 0 10.432-4.68 10.432-10.432s-4.68-10.433-10.432-10.433-10.433 4.68-10.433 10.433S345.897 170.154 351.649 170.154z" fill="#29a039" data-fill-palette-color="accent"></path><path d="M320 410c-31.981 0-58-26.019-58-58v-90c90.716-0.015 93.201-0.715 126.243-33.757 2.343-2.343 2.343-6.142 0-8.485-2.343-2.343-6.143-2.343-8.485 0-15.672 15.672-22.825 22.825-37.212 26.422C327.261 250 303.446 250 256 250c-47.446 0-71.261 0-86.544-3.821-14.388-3.597-21.541-10.75-37.212-26.422-2.343-2.343-6.143-2.343-8.485 0-2.343 2.343-2.343 6.142 0 8.485C156.8 261.285 159.284 261.985 250 262v90c0 31.981-26.019 58-58 58-3.313 0-6 2.687-6 6s2.687 6 6 6c28.527 0 53.107-17.162 64-41.696C266.893 404.838 291.473 422 320 422c3.313 0 6-2.687 6-6S323.313 410 320 410z" fill="#29a039" data-fill-palette-color="accent"></path></g></g></svg></g></svg></g></svg></g><defs></defs></svg><rect width="395.5199999999999" height="90.31067321627243" fill="none" stroke="none" visibility="hidden"></rect></g></svg></g></svg>